<?xml version="1.0" standalone="no"?>
<!DOCTYPE svg PUBLIC "-//W3C//DTD SVG 20010904//EN"
 "http://www.w3.org/TR/2001/REC-SVG-20010904/DTD/svg10.dtd">
<svg version="1.0" xmlns="http://www.w3.org/2000/svg"
 width="72.000000pt" height="72.000000pt" viewBox="0 0 72.000000 72.000000"
 preserveAspectRatio="xMidYMid meet">
<metadata>
Created by potrace 1.11, written by Peter Selinger 2001-2013
</metadata>
<g transform="translate(0.000000,72.000000) scale(0.100000,-0.100000)"
fill="#000000" stroke="none">
<path d="M256 648 c-60 -7 -75 -13 -116 -48 -27 -22 -61 -62 -76 -88 -24 -40
-28 -57 -27 -124 0 -63 5 -84 26 -120 28 -48 64 -85 73 -75 4 4 18 -3 32 -13
36 -29 117 -50 191 -50 135 0 220 45 270 143 43 86 48 137 17 185 -30 47 -110
123 -156 148 -74 41 -138 53 -234 42z m202 -76 c65 -33 145 -94 100 -77 -13 5
-10 -6 14 -50 28 -52 30 -61 23 -123 -4 -37 -11 -71 -15 -77 -5 -5 -8 -14 -8
-20 1 -18 -96 -63 -158 -74 -107 -19 -217 13 -280 81 -43 46 -70 149 -54 207
19 70 49 110 104 138 102 52 163 51 274 -5z m-327 -359 c13 -16 12 -17 -3 -4
-10 7 -18 15 -18 17 0 8 8 3 21 -13z"/>
<path d="M225 450 c-3 -6 -21 -10 -39 -8 -37 2 -59 -9 -52 -27 2 -7 0 -17 -6
-23 -13 -13 -1 -89 15 -99 18 -12 182 -29 265 -29 83 1 102 14 94 66 -6 44
-19 46 -56 7 l-33 -35 -44 25 c-43 24 -99 76 -99 92 0 16 -38 43 -45 31z"/>
<path d="M390 225 c0 -5 5 -17 10 -25 5 -8 10 -10 10 -5 0 6 -5 17 -10 25 -5
8 -10 11 -10 5z"/>
</g>
</svg>
